<svg width="68" height="68" viewBox="0 0 68 68" fill="none" xmlns="http://www.w3.org/2000/svg">
<circle opacity="0.99" cx="33.5773" cy="33.5773" r="33.5773" fill="#253F7C"/>
<path d="M20.4678 50.3652C19.3632 50.3652 18.4678 49.4698 18.4678 48.3652L18.4678 18.7879C18.4678 17.6834 19.3632 16.7879 20.4678 16.7879L42.1474 16.7879C42.7807 16.7879 43.3766 17.0879 43.7539 17.5966L48.2938 23.7189C48.5494 24.0635 48.6873 24.4812 48.6873 24.9102L48.6873 48.3652C48.6873 49.4698 47.7919 50.3652 46.6873 50.3652L20.4678 50.3652Z" fill="#E9EFFE"/>
<path d="M25.1826 26.8625C25.1826 25.9352 25.9343 25.1836 26.8615 25.1836C27.7887 25.1836 28.5403 25.9352 28.5403 26.8625C28.5403 27.7897 27.7887 28.5413 26.8615 28.5413C25.9343 28.5413 25.1826 27.7897 25.1826 26.8625Z" fill="#27417D"/>
<path d="M30.2197 26.1836C30.2197 25.6313 30.6674 25.1836 31.2197 25.1836H40.9718C41.5241 25.1836 41.9718 25.6313 41.9718 26.1836V27.5413C41.9718 28.0936 41.5241 28.5413 40.9718 28.5413H31.2197C30.6674 28.5413 30.2197 28.0936 30.2197 27.5413V26.1836Z" fill="#27417D"/>
<ellipse cx="44.1029" cy="18.2748" rx="9.23376" ry="9.23376" fill="#27417D"/>
<path d="M25.1826 33.5773C25.1826 32.6501 25.9343 31.8984 26.8615 31.8984C27.7887 31.8984 28.5403 32.6501 28.5403 33.5773C28.5403 34.5045 27.7887 35.2562 26.8615 35.2562C25.9343 35.2562 25.1826 34.5045 25.1826 33.5773Z" fill="#27417D"/>
<path d="M30.2197 32.8984C30.2197 32.3462 30.6674 31.8984 31.2197 31.8984H40.9718C41.5241 31.8984 41.9718 32.3462 41.9718 32.8984V34.2562C41.9718 34.8085 41.5241 35.2562 40.9718 35.2562H31.2197C30.6674 35.2562 30.2197 34.8085 30.2197 34.2562V32.8984Z" fill="#27417D"/>
<path d="M25.1826 40.2921C25.1826 39.3649 25.9343 38.6133 26.8615 38.6133C27.7887 38.6133 28.5403 39.3649 28.5403 40.2921C28.5403 41.2194 27.7887 41.971 26.8615 41.971C25.9343 41.971 25.1826 41.2194 25.1826 40.2921Z" fill="#27417D"/>
<path d="M30.2197 39.6133C30.2197 39.061 30.6674 38.6133 31.2197 38.6133H40.9718C41.5241 38.6133 41.9718 39.061 41.9718 39.6133V40.971C41.9718 41.5233 41.5241 41.971 40.9718 41.971H31.2197C30.6674 41.971 30.2197 41.5233 30.2197 40.971V39.6133Z" fill="#27417D"/>
<path d="M49.8345 14.609L43.9438 20.5364L41.0828 17.6575C40.5476 17.1189 39.6799 17.119 39.1446 17.6575C38.6094 18.196 38.6094 19.0692 39.1446 19.6078L42.9747 23.4619C43.5099 24.0003 44.3776 24.0005 44.9129 23.4619L51.7726 16.5593C52.3079 16.0207 52.3079 15.1476 51.7727 14.609C51.2374 14.0704 50.3697 14.0705 49.8345 14.609Z" fill="#FF5A5F"/>
</svg>
