<svg width="68" height="68" viewBox="0 0 68 68" fill="none" xmlns="http://www.w3.org/2000/svg">
<circle opacity="0.99" cx="33.9757" cy="34.1125" r="33.5773" fill="#27417D"/>
<path d="M34.4182 31.5293C29.1785 31.5293 24.9355 35.7818 24.9355 41.0215C24.9355 46.2611 29.1785 50.5136 34.4182 50.5136C39.6674 50.5136 43.9199 46.2611 43.9199 41.0215C43.9199 35.7818 39.6674 31.5293 34.4182 31.5293ZM38.4429 46.7168L34.4277 44.2963L30.4125 46.7168L31.4757 42.151L27.9351 39.0851L32.6052 38.6864L34.4277 34.3769L36.2502 38.6769L40.9204 39.0756L37.3798 42.1415L38.4429 46.7168Z" fill="#E9EFFE"/>
<path opacity="0.99" d="M14.3128 41.8609C13.7605 41.8609 13.3099 42.309 13.3403 42.8604C13.4617 45.0628 13.9834 47.2321 14.8856 49.2741C15.9241 51.6243 17.4461 53.7598 19.3648 55.5586C21.2835 57.3574 23.5614 58.7843 26.0683 59.7579C28.5753 60.7314 31.2622 61.2324 33.9757 61.2324C36.6892 61.2324 39.3761 60.7314 41.8831 59.7579C44.39 58.7843 46.6679 57.3574 48.5866 55.5586C50.5054 53.7598 52.0274 51.6243 53.0658 49.2741C53.968 47.2321 54.4898 45.0628 54.6112 42.8604C54.6415 42.309 54.191 41.8609 53.6387 41.8609L52.0759 41.8609C51.5237 41.8609 51.0794 42.3091 51.0427 42.8602C50.9252 44.6237 50.4974 46.3592 49.7743 47.9959C48.9149 49.9409 47.6553 51.7082 46.0674 53.1969C44.4795 54.6855 42.5944 55.8664 40.5197 56.672C38.445 57.4777 36.2214 57.8924 33.9757 57.8924C31.7301 57.8924 29.5064 57.4777 27.4317 56.672C25.3571 55.8664 23.4719 54.6855 21.884 53.1968C20.2961 51.7082 19.0365 49.9409 18.1772 47.9959C17.4541 46.3592 17.0262 44.6237 16.9088 42.8602C16.872 42.3091 16.4278 41.8609 15.8755 41.8609L14.3128 41.8609Z" fill="#E9EFFE"/>
<ellipse cx="34.6224" cy="40.5689" rx="7.10289" ry="7.74861" fill="#E9EFFE"/>
<path d="M38.4088 37.0733L33.3111 42.6199L30.8352 39.9259C30.3721 39.4219 29.6211 39.422 29.1579 39.9259C28.6947 40.4299 28.6947 41.2469 29.1579 41.7509L32.4725 45.3574C32.9356 45.8612 33.6865 45.8614 34.1497 45.3574L40.086 38.8983C40.5492 38.3943 40.5493 37.5773 40.0861 37.0733C39.6229 36.5693 38.872 36.5694 38.4088 37.0733Z" fill="#FF5A5F"/>
<path d="M16.756 24.816C16.7987 24.816 16.836 24.8333 16.868 24.868L17.176 25.2C16.9413 25.472 16.656 25.684 16.32 25.836C15.9867 25.988 15.5827 26.064 15.108 26.064C14.6973 26.064 14.324 25.9933 13.988 25.852C13.652 25.708 13.3653 25.508 13.128 25.252C12.8907 24.9933 12.7067 24.684 12.576 24.324C12.4453 23.964 12.38 23.568 12.38 23.136C12.38 22.704 12.448 22.308 12.584 21.948C12.72 21.588 12.9107 21.2787 13.156 21.02C13.404 20.7613 13.7 20.5613 14.044 20.42C14.388 20.276 14.768 20.204 15.184 20.204C15.592 20.204 15.952 20.2693 16.264 20.4C16.576 20.5307 16.8507 20.708 17.088 20.932L16.832 21.288C16.816 21.3147 16.7947 21.3373 16.768 21.356C16.744 21.372 16.7107 21.38 16.668 21.38C16.62 21.38 16.5613 21.3547 16.492 21.304C16.4227 21.2507 16.332 21.192 16.22 21.128C16.108 21.064 15.968 21.0067 15.8 20.956C15.632 20.9027 15.4253 20.876 15.18 20.876C14.884 20.876 14.6133 20.928 14.368 21.032C14.1227 21.1333 13.9107 21.2813 13.732 21.476C13.556 21.6707 13.4187 21.908 13.32 22.188C13.2213 22.468 13.172 22.784 13.172 23.136C13.172 23.4933 13.2227 23.812 13.324 24.092C13.428 24.372 13.568 24.6093 13.744 24.804C13.9227 24.996 14.132 25.1427 14.372 25.244C14.6147 25.3453 14.876 25.396 15.156 25.396C15.3267 25.396 15.48 25.3867 15.616 25.368C15.7547 25.3467 15.8813 25.3147 15.996 25.272C16.1133 25.2293 16.2213 25.176 16.32 25.112C16.4213 25.0453 16.5213 24.9667 16.62 24.876C16.6653 24.836 16.7107 24.816 16.756 24.816ZM18.6238 22.488C18.7971 22.304 18.9891 22.1573 19.1998 22.048C19.4104 21.9387 19.6531 21.884 19.9278 21.884C20.1491 21.884 20.3438 21.9213 20.5118 21.996C20.6824 22.068 20.8238 22.172 20.9358 22.308C21.0504 22.4413 21.1371 22.6027 21.1958 22.792C21.2544 22.9813 21.2838 23.1907 21.2838 23.42V26H20.5678V23.42C20.5678 23.1133 20.4971 22.876 20.3558 22.708C20.2171 22.5373 20.0051 22.452 19.7198 22.452C19.5091 22.452 19.3118 22.5027 19.1278 22.604C18.9464 22.7053 18.7784 22.8427 18.6238 23.016V26H17.9078V20.108H18.6238V22.488ZM25.0807 23.532C25.0807 23.3667 25.0567 23.216 25.0087 23.08C24.9634 22.9413 24.8954 22.8227 24.8047 22.724C24.7167 22.6227 24.6087 22.5453 24.4807 22.492C24.3527 22.436 24.2074 22.408 24.0447 22.408C23.7034 22.408 23.4327 22.508 23.2327 22.708C23.0354 22.9053 22.9127 23.18 22.8647 23.532H25.0807ZM25.6567 25.432C25.5687 25.5387 25.4634 25.632 25.3407 25.712C25.218 25.7893 25.086 25.8533 24.9447 25.904C24.806 25.9547 24.662 25.992 24.5127 26.016C24.3634 26.0427 24.2154 26.056 24.0687 26.056C23.7887 26.056 23.53 26.0093 23.2927 25.916C23.058 25.82 22.854 25.6813 22.6807 25.5C22.51 25.316 22.3767 25.0893 22.2807 24.82C22.1847 24.5507 22.1367 24.2413 22.1367 23.892C22.1367 23.6093 22.1794 23.3453 22.2647 23.1C22.3527 22.8547 22.478 22.6427 22.6407 22.464C22.8034 22.2827 23.002 22.1413 23.2367 22.04C23.4714 21.936 23.7354 21.884 24.0287 21.884C24.2714 21.884 24.4954 21.9253 24.7007 22.008C24.9087 22.088 25.0874 22.2053 25.2367 22.36C25.3887 22.512 25.5074 22.7013 25.5927 22.928C25.678 23.152 25.7207 23.408 25.7207 23.696C25.7207 23.808 25.7087 23.8827 25.6847 23.92C25.6607 23.9573 25.6154 23.976 25.5487 23.976H22.8407C22.8487 24.232 22.8834 24.4547 22.9447 24.644C23.0087 24.8333 23.0967 24.992 23.2087 25.12C23.3207 25.2453 23.454 25.34 23.6087 25.404C23.7634 25.4653 23.9367 25.496 24.1287 25.496C24.3074 25.496 24.4607 25.476 24.5887 25.436C24.7194 25.3933 24.8314 25.348 24.9247 25.3C25.018 25.252 25.0954 25.208 25.1567 25.168C25.2207 25.1253 25.2754 25.104 25.3207 25.104C25.3794 25.104 25.4247 25.1267 25.4567 25.172L25.6567 25.432ZM29.4153 22.668C29.3939 22.6973 29.3726 22.72 29.3513 22.736C29.3299 22.752 29.3006 22.76 29.2633 22.76C29.2233 22.76 29.1793 22.744 29.1313 22.712C29.0833 22.6773 29.0233 22.64 28.9513 22.6C28.8819 22.56 28.7953 22.524 28.6913 22.492C28.5899 22.4573 28.4646 22.44 28.3153 22.44C28.1153 22.44 27.9393 22.476 27.7873 22.548C27.6353 22.6173 27.5073 22.7187 27.4033 22.852C27.3019 22.9853 27.2246 23.1467 27.1713 23.336C27.1206 23.5253 27.0953 23.7373 27.0953 23.972C27.0953 24.2173 27.1233 24.436 27.1793 24.628C27.2353 24.8173 27.3139 24.9773 27.4153 25.108C27.5193 25.236 27.6433 25.3347 27.7873 25.404C27.9339 25.4707 28.0979 25.504 28.2793 25.504C28.4526 25.504 28.5953 25.484 28.7073 25.444C28.8193 25.4013 28.9113 25.3547 28.9833 25.304C29.0579 25.2533 29.1193 25.208 29.1673 25.168C29.2179 25.1253 29.2673 25.104 29.3153 25.104C29.3739 25.104 29.4193 25.1267 29.4513 25.172L29.6513 25.432C29.5633 25.5413 29.4633 25.6347 29.3513 25.712C29.2393 25.7893 29.1179 25.8547 28.9873 25.908C28.8593 25.9587 28.7246 25.996 28.5833 26.02C28.4419 26.044 28.2979 26.056 28.1513 26.056C27.8979 26.056 27.6619 26.0093 27.4433 25.916C27.2273 25.8227 27.0393 25.688 26.8793 25.512C26.7193 25.3333 26.5939 25.1147 26.5033 24.856C26.4126 24.5973 26.3673 24.3027 26.3673 23.972C26.3673 23.6707 26.4086 23.392 26.4913 23.136C26.5766 22.88 26.6993 22.66 26.8593 22.476C27.0219 22.2893 27.2206 22.144 27.4553 22.04C27.6926 21.936 27.9646 21.884 28.2713 21.884C28.5566 21.884 28.8073 21.9307 29.0233 22.024C29.2419 22.1147 29.4353 22.244 29.6033 22.412L29.4153 22.668ZM31.1316 20.108V23.576H31.3156C31.3689 23.576 31.4129 23.5693 31.4476 23.556C31.4849 23.54 31.5236 23.5093 31.5636 23.464L32.8436 22.092C32.8809 22.0467 32.9196 22.012 32.9596 21.988C33.0022 21.9613 33.0582 21.948 33.1276 21.948H33.7716L32.2796 23.536C32.2076 23.6267 32.1302 23.6973 32.0476 23.748C32.0956 23.78 32.1382 23.8173 32.1756 23.86C32.2156 23.9 32.2529 23.9467 32.2876 24L33.8716 26H33.2356C33.1742 26 33.1209 25.9907 33.0756 25.972C33.0329 25.9507 32.9956 25.9133 32.9636 25.86L31.6316 24.2C31.5916 24.144 31.5516 24.108 31.5116 24.092C31.4742 24.0733 31.4156 24.064 31.3356 24.064H31.1316V26H30.4156V20.108H31.1316ZM35.1941 25.024C35.3247 25.2 35.4674 25.324 35.6221 25.396C35.7767 25.468 35.9501 25.504 36.1421 25.504C36.5207 25.504 36.8114 25.3693 37.0141 25.1C37.2167 24.8307 37.3181 24.4467 37.3181 23.948C37.3181 23.684 37.2941 23.4573 37.2461 23.268C37.2007 23.0787 37.1341 22.924 37.0461 22.804C36.9581 22.6813 36.8501 22.592 36.7221 22.536C36.5941 22.48 36.4487 22.452 36.2861 22.452C36.0541 22.452 35.8501 22.5053 35.6741 22.612C35.5007 22.7187 35.3407 22.8693 35.1941 23.064V25.024ZM35.1581 22.576C35.3287 22.3653 35.5261 22.196 35.7501 22.068C35.9741 21.94 36.2301 21.876 36.5181 21.876C36.7527 21.876 36.9647 21.9213 37.1541 22.012C37.3434 22.1 37.5047 22.232 37.6381 22.408C37.7714 22.5813 37.8741 22.7973 37.9461 23.056C38.0181 23.3147 38.0541 23.612 38.0541 23.948C38.0541 24.2467 38.0141 24.5253 37.9341 24.784C37.8541 25.04 37.7381 25.2627 37.5861 25.452C37.4367 25.6387 37.2527 25.7867 37.0341 25.896C36.8181 26.0027 36.5741 26.056 36.3021 26.056C36.0541 26.056 35.8407 26.0147 35.6621 25.932C35.4861 25.8467 35.3301 25.7293 35.1941 25.58V27.372H34.4781V21.948H34.9061C35.0074 21.948 35.0701 21.9973 35.0941 22.096L35.1581 22.576ZM40.6704 21.884C40.9664 21.884 41.2331 21.9333 41.4704 22.032C41.7078 22.1307 41.9104 22.2707 42.0784 22.452C42.2464 22.6333 42.3744 22.8533 42.4624 23.112C42.5531 23.368 42.5984 23.6547 42.5984 23.972C42.5984 24.292 42.5531 24.58 42.4624 24.836C42.3744 25.092 42.2464 25.3107 42.0784 25.492C41.9104 25.6733 41.7078 25.8133 41.4704 25.912C41.2331 26.008 40.9664 26.056 40.6704 26.056C40.3718 26.056 40.1024 26.008 39.8624 25.912C39.6251 25.8133 39.4224 25.6733 39.2544 25.492C39.0864 25.3107 38.9571 25.092 38.8664 24.836C38.7784 24.58 38.7344 24.292 38.7344 23.972C38.7344 23.6547 38.7784 23.368 38.8664 23.112C38.9571 22.8533 39.0864 22.6333 39.2544 22.452C39.4224 22.2707 39.6251 22.1307 39.8624 22.032C40.1024 21.9333 40.3718 21.884 40.6704 21.884ZM40.6704 25.5C41.0704 25.5 41.3691 25.3667 41.5664 25.1C41.7638 24.8307 41.8624 24.456 41.8624 23.976C41.8624 23.4933 41.7638 23.1173 41.5664 22.848C41.3691 22.5787 41.0704 22.444 40.6704 22.444C40.4678 22.444 40.2904 22.4787 40.1384 22.548C39.9891 22.6173 39.8638 22.7173 39.7624 22.848C39.6638 22.9787 39.5891 23.14 39.5384 23.332C39.4904 23.5213 39.4664 23.736 39.4664 23.976C39.4664 24.456 39.5651 24.8307 39.7624 25.1C39.9624 25.3667 40.2651 25.5 40.6704 25.5ZM44.2535 21.948V26H43.5415V21.948H44.2535ZM44.4055 20.676C44.4055 20.7453 44.3908 20.8107 44.3615 20.872C44.3348 20.9307 44.2975 20.984 44.2495 21.032C44.2042 21.0773 44.1495 21.1133 44.0855 21.14C44.0242 21.1667 43.9588 21.18 43.8895 21.18C43.8202 21.18 43.7548 21.1667 43.6935 21.14C43.6348 21.1133 43.5828 21.0773 43.5375 21.032C43.4922 20.984 43.4562 20.9307 43.4295 20.872C43.4028 20.8107 43.3895 20.7453 43.3895 20.676C43.3895 20.6067 43.4028 20.5413 43.4295 20.48C43.4562 20.416 43.4922 20.3613 43.5375 20.316C43.5828 20.268 43.6348 20.2307 43.6935 20.204C43.7548 20.1773 43.8202 20.164 43.8895 20.164C43.9588 20.164 44.0242 20.1773 44.0855 20.204C44.1495 20.2307 44.2042 20.268 44.2495 20.316C44.2975 20.3613 44.3348 20.416 44.3615 20.48C44.3908 20.5413 44.4055 20.6067 44.4055 20.676ZM46.0954 22.536C46.1834 22.4373 46.2767 22.348 46.3754 22.268C46.474 22.188 46.578 22.12 46.6874 22.064C46.7994 22.0053 46.9167 21.9613 47.0394 21.932C47.1647 21.9 47.2994 21.884 47.4434 21.884C47.6647 21.884 47.8594 21.9213 48.0274 21.996C48.198 22.068 48.3394 22.172 48.4514 22.308C48.566 22.4413 48.6527 22.6027 48.7114 22.792C48.77 22.9813 48.7994 23.1907 48.7994 23.42V26H48.0834V23.42C48.0834 23.1133 48.0127 22.876 47.8714 22.708C47.7327 22.5373 47.5207 22.452 47.2354 22.452C47.0247 22.452 46.8274 22.5027 46.6434 22.604C46.462 22.7053 46.294 22.8427 46.1394 23.016V26H45.4234V21.948H45.8514C45.9527 21.948 46.0154 21.9973 46.0394 22.096L46.0954 22.536ZM51.0736 26.064C50.7536 26.064 50.507 25.9747 50.3336 25.796C50.163 25.6173 50.0776 25.36 50.0776 25.024V22.544H49.5896C49.547 22.544 49.511 22.532 49.4816 22.508C49.4523 22.4813 49.4376 22.4413 49.4376 22.388V22.104L50.1016 22.02L50.2656 20.768C50.2736 20.728 50.291 20.696 50.3176 20.672C50.347 20.6453 50.3843 20.632 50.4296 20.632H50.7896V22.028H51.9616V22.544H50.7896V24.976C50.7896 25.1467 50.831 25.2733 50.9136 25.356C50.9963 25.4387 51.103 25.48 51.2336 25.48C51.3083 25.48 51.3723 25.4707 51.4256 25.452C51.4816 25.4307 51.5296 25.408 51.5696 25.384C51.6096 25.36 51.643 25.3387 51.6696 25.32C51.699 25.2987 51.7243 25.288 51.7456 25.288C51.783 25.288 51.8163 25.3107 51.8456 25.356L52.0536 25.696C51.931 25.8107 51.783 25.9013 51.6096 25.968C51.4363 26.032 51.2576 26.064 51.0736 26.064ZM55.0568 22.616C55.0248 22.6747 54.9755 22.704 54.9088 22.704C54.8688 22.704 54.8235 22.6893 54.7728 22.66C54.7221 22.6307 54.6595 22.5987 54.5848 22.564C54.5128 22.5267 54.4261 22.4933 54.3248 22.464C54.2235 22.432 54.1035 22.416 53.9648 22.416C53.8448 22.416 53.7368 22.432 53.6408 22.464C53.5448 22.4933 53.4621 22.5347 53.3928 22.588C53.3261 22.6413 53.2741 22.704 53.2368 22.776C53.2021 22.8453 53.1848 22.9213 53.1848 23.004C53.1848 23.108 53.2141 23.1947 53.2728 23.264C53.3341 23.3333 53.4141 23.3933 53.5128 23.444C53.6115 23.4947 53.7235 23.54 53.8488 23.58C53.9741 23.6173 54.1021 23.6587 54.2328 23.704C54.3661 23.7467 54.4955 23.7947 54.6208 23.848C54.7461 23.9013 54.8581 23.968 54.9568 24.048C55.0555 24.128 55.1341 24.2267 55.1928 24.344C55.2541 24.4587 55.2848 24.5973 55.2848 24.76C55.2848 24.9467 55.2515 25.12 55.1848 25.28C55.1181 25.4373 55.0195 25.5747 54.8888 25.692C54.7581 25.8067 54.5981 25.8973 54.4088 25.964C54.2195 26.0307 54.0008 26.064 53.7528 26.064C53.4701 26.064 53.2141 26.0187 52.9848 25.928C52.7555 25.8347 52.5608 25.716 52.4008 25.572L52.5688 25.3C52.5901 25.2653 52.6155 25.2387 52.6448 25.22C52.6741 25.2013 52.7115 25.192 52.7568 25.192C52.8048 25.192 52.8555 25.2107 52.9088 25.248C52.9621 25.2853 53.0261 25.3267 53.1008 25.372C53.1781 25.4173 53.2715 25.4587 53.3808 25.496C53.4901 25.5333 53.6261 25.552 53.7888 25.552C53.9275 25.552 54.0488 25.5347 54.1528 25.5C54.2568 25.4627 54.3435 25.4133 54.4128 25.352C54.4821 25.2907 54.5328 25.22 54.5648 25.14C54.5995 25.06 54.6168 24.9747 54.6168 24.884C54.6168 24.772 54.5861 24.68 54.5248 24.608C54.4661 24.5333 54.3875 24.4707 54.2888 24.42C54.1901 24.3667 54.0768 24.3213 53.9488 24.284C53.8235 24.244 53.6941 24.2027 53.5608 24.16C53.4301 24.1173 53.3008 24.0693 53.1728 24.016C53.0475 23.96 52.9355 23.8907 52.8368 23.808C52.7381 23.7253 52.6581 23.624 52.5968 23.504C52.5381 23.3813 52.5088 23.2333 52.5088 23.06C52.5088 22.9053 52.5408 22.7573 52.6048 22.616C52.6688 22.472 52.7621 22.3467 52.8848 22.24C53.0075 22.1307 53.1581 22.044 53.3368 21.98C53.5155 21.916 53.7195 21.884 53.9488 21.884C54.2155 21.884 54.4541 21.9267 54.6648 22.012C54.8781 22.0947 55.0621 22.2093 55.2168 22.356L55.0568 22.616Z" fill="#E9EFFE"/>
<path d="M26.905 15.85C27.0383 15.85 27.1433 15.8883 27.22 15.965C27.3 16.0383 27.34 16.1367 27.34 16.26V17H22.38V16.59C22.38 16.5067 22.3967 16.42 22.43 16.33C22.4667 16.2367 22.5233 16.1533 22.6 16.08L24.795 13.88C24.9783 13.6933 25.1417 13.515 25.285 13.345C25.4317 13.175 25.5533 13.0067 25.65 12.84C25.7467 12.6733 25.82 12.505 25.87 12.335C25.9233 12.1617 25.95 11.98 25.95 11.79C25.95 11.6167 25.925 11.465 25.875 11.335C25.825 11.2017 25.7533 11.09 25.66 11C25.57 10.91 25.46 10.8433 25.33 10.8C25.2033 10.7533 25.06 10.73 24.9 10.73C24.7533 10.73 24.6167 10.7517 24.49 10.795C24.3667 10.835 24.2567 10.8933 24.16 10.97C24.0633 11.0433 23.9817 11.13 23.915 11.23C23.8483 11.33 23.7983 11.44 23.765 11.56C23.7083 11.7133 23.635 11.815 23.545 11.865C23.455 11.915 23.325 11.9267 23.155 11.9L22.505 11.785C22.555 11.4383 22.6517 11.135 22.795 10.875C22.9383 10.6117 23.1167 10.3933 23.33 10.22C23.5467 10.0433 23.7933 9.91167 24.07 9.825C24.35 9.735 24.65 9.69 24.97 9.69C25.3033 9.69 25.6083 9.74 25.885 9.84C26.1617 9.93667 26.3983 10.075 26.595 10.255C26.7917 10.435 26.945 10.6517 27.055 10.905C27.165 11.1583 27.22 11.44 27.22 11.75C27.22 12.0167 27.18 12.2633 27.1 12.49C27.0233 12.7167 26.9183 12.9333 26.785 13.14C26.655 13.3467 26.5017 13.5467 26.325 13.74C26.1483 13.9333 25.9633 14.13 25.77 14.33L24.14 15.995C24.2967 15.9483 24.4517 15.9133 24.605 15.89C24.7617 15.8633 24.91 15.85 25.05 15.85H26.905ZM33.3508 13.385C33.3508 14.015 33.2824 14.5633 33.1458 15.03C33.0124 15.4933 32.8258 15.8767 32.5858 16.18C32.3491 16.4833 32.0674 16.71 31.7408 16.86C31.4174 17.0067 31.0674 17.08 30.6908 17.08C30.3141 17.08 29.9641 17.0067 29.6408 16.86C29.3208 16.71 29.0424 16.4833 28.8058 16.18C28.5691 15.8767 28.3841 15.4933 28.2508 15.03C28.1174 14.5633 28.0508 14.015 28.0508 13.385C28.0508 12.7517 28.1174 12.2033 28.2508 11.74C28.3841 11.2767 28.5691 10.8933 28.8058 10.59C29.0424 10.2867 29.3208 10.0617 29.6408 9.915C29.9641 9.765 30.3141 9.69 30.6908 9.69C31.0674 9.69 31.4174 9.765 31.7408 9.915C32.0674 10.0617 32.3491 10.2867 32.5858 10.59C32.8258 10.8933 33.0124 11.2767 33.1458 11.74C33.2824 12.2033 33.3508 12.7517 33.3508 13.385ZM32.0758 13.385C32.0758 12.8617 32.0374 12.4283 31.9608 12.085C31.8841 11.7417 31.7808 11.4683 31.6508 11.265C31.5241 11.0617 31.3774 10.92 31.2108 10.84C31.0441 10.7567 30.8708 10.715 30.6908 10.715C30.5141 10.715 30.3424 10.7567 30.1758 10.84C30.0124 10.92 29.8674 11.0617 29.7408 11.265C29.6141 11.4683 29.5124 11.7417 29.4358 12.085C29.3624 12.4283 29.3258 12.8617 29.3258 13.385C29.3258 13.9083 29.3624 14.3417 29.4358 14.685C29.5124 15.0283 29.6141 15.3017 29.7408 15.505C29.8674 15.7083 30.0124 15.8517 30.1758 15.935C30.3424 16.015 30.5141 16.055 30.6908 16.055C30.8708 16.055 31.0441 16.015 31.2108 15.935C31.3774 15.8517 31.5241 15.7083 31.6508 15.505C31.7808 15.3017 31.8841 15.0283 31.9608 14.685C32.0374 14.3417 32.0758 13.9083 32.0758 13.385ZM39.1516 13.385C39.1516 14.015 39.0832 14.5633 38.9466 15.03C38.8132 15.4933 38.6266 15.8767 38.3866 16.18C38.1499 16.4833 37.8682 16.71 37.5416 16.86C37.2182 17.0067 36.8682 17.08 36.4916 17.08C36.1149 17.08 35.7649 17.0067 35.4416 16.86C35.1216 16.71 34.8432 16.4833 34.6066 16.18C34.3699 15.8767 34.1849 15.4933 34.0516 15.03C33.9182 14.5633 33.8516 14.015 33.8516 13.385C33.8516 12.7517 33.9182 12.2033 34.0516 11.74C34.1849 11.2767 34.3699 10.8933 34.6066 10.59C34.8432 10.2867 35.1216 10.0617 35.4416 9.915C35.7649 9.765 36.1149 9.69 36.4916 9.69C36.8682 9.69 37.2182 9.765 37.5416 9.915C37.8682 10.0617 38.1499 10.2867 38.3866 10.59C38.6266 10.8933 38.8132 11.2767 38.9466 11.74C39.0832 12.2033 39.1516 12.7517 39.1516 13.385ZM37.8766 13.385C37.8766 12.8617 37.8382 12.4283 37.7616 12.085C37.6849 11.7417 37.5816 11.4683 37.4516 11.265C37.3249 11.0617 37.1782 10.92 37.0116 10.84C36.8449 10.7567 36.6716 10.715 36.4916 10.715C36.3149 10.715 36.1432 10.7567 35.9766 10.84C35.8132 10.92 35.6682 11.0617 35.5416 11.265C35.4149 11.4683 35.3132 11.7417 35.2366 12.085C35.1632 12.4283 35.1266 12.8617 35.1266 13.385C35.1266 13.9083 35.1632 14.3417 35.2366 14.685C35.3132 15.0283 35.4149 15.3017 35.5416 15.505C35.6682 15.7083 35.8132 15.8517 35.9766 15.935C36.1432 16.015 36.3149 16.055 36.4916 16.055C36.6716 16.055 36.8449 16.015 37.0116 15.935C37.1782 15.8517 37.3249 15.7083 37.4516 15.505C37.5816 15.3017 37.6849 15.0283 37.7616 14.685C37.8382 14.3417 37.8766 13.9083 37.8766 13.385ZM44.7423 14.1H42.8023V16.16H41.7973V14.1H39.8673V13.185H41.7973V11.135H42.8023V13.185H44.7423V14.1Z" fill="#E9EFFE"/>
</svg>
