<svg width="68" height="68" viewBox="0 0 68 68" fill="none" xmlns="http://www.w3.org/2000/svg">
<circle opacity="0.99" cx="34.0119" cy="34.1125" r="33.5773" fill="#233D7B"/>
<path d="M33.8121 14.5035L33.8122 14.5034C33.9876 14.4338 34.1874 14.4337 34.3633 14.5035C34.3633 14.5035 34.3634 14.5035 34.3634 14.5035L50.8382 21.0444C51.1046 21.1502 51.2437 21.3806 51.2437 21.5997V29.5511C51.2437 40.0667 44.5961 49.5587 34.3595 53.5541C34.2719 53.5883 34.1775 53.6055 34.0822 53.6049C33.9906 53.6042 33.9002 53.587 33.816 53.5541C23.5792 49.5586 16.9316 40.0667 16.9316 29.5511V21.5997C16.9316 21.3807 17.0708 21.1502 17.3371 21.0444C17.3372 21.0444 17.3372 21.0444 17.3372 21.0444L33.8121 14.5035Z" stroke="#E9EFFE" stroke-width="2"/>
<path d="M44.9729 25.3815L34.4262 21.2763C34.162 21.1735 33.865 21.1735 33.6009 21.2763L23.0542 25.3815C22.6525 25.5379 22.3906 25.9056 22.3906 26.3133V31.3038C22.3906 38.1753 26.8207 44.3564 33.6068 46.9531C33.7346 47.002 33.8699 47.0269 34.0054 47.0279C34.1463 47.0289 34.2873 47.004 34.4202 46.9531C41.2062 44.3564 45.6364 38.1753 45.6364 31.3038V26.3133C45.6364 25.9056 45.3747 25.5379 44.9729 25.3815Z" fill="#E9EFFE"/>
<path d="M38.2214 29.3252L32.5573 34.8719L29.8063 32.1779C29.2917 31.6739 28.4573 31.674 27.9426 32.1779C27.428 32.6818 27.428 33.4989 27.9426 34.0029L31.6255 37.6093C32.14 38.1132 32.9744 38.1134 33.4891 37.6093L40.085 31.1502C40.5996 30.6463 40.5997 29.8292 40.085 29.3252C39.5704 28.8212 38.736 28.8213 38.2214 29.3252Z" fill="#FF5A5F"/>
</svg>
